<?xml version="1.0" encoding="UTF-8"?>
<svg xmlns="http://www.w3.org/2000/svg" viewBox="0 0 520 420" fill="none">
  <defs>
    <linearGradient id="screen-bg" x1="0" y1="0" x2="0" y2="1">
      <stop offset="0%" stop-color="#ffffff"/>
      <stop offset="100%" stop-color="#f8fafc"/>
    </linearGradient>
    <linearGradient id="hero-band" x1="0" y1="0" x2="0" y2="1">
      <stop offset="0%" stop-color="#ecfdf5"/>
      <stop offset="100%" stop-color="#ffffff"/>
    </linearGradient>
    <linearGradient id="accent-grad" x1="0" y1="0" x2="1" y2="1">
      <stop offset="0%" stop-color="#10b981"/>
      <stop offset="100%" stop-color="#059669"/>
    </linearGradient>
    <linearGradient id="chart-fill" x1="0" y1="1" x2="0" y2="0">
      <stop offset="0%" stop-color="#059669" stop-opacity="0.1"/>
      <stop offset="100%" stop-color="#059669" stop-opacity="0.35"/>
    </linearGradient>
    <filter id="device-shadow" x="-15%" y="-10%" width="130%" height="130%">
      <feDropShadow dx="0" dy="14" stdDeviation="18" flood-color="#0f172a" flood-opacity="0.12"/>
    </filter>
    <filter id="float-shadow" x="-25%" y="-25%" width="150%" height="150%">
      <feDropShadow dx="0" dy="8" stdDeviation="10" flood-color="#0f172a" flood-opacity="0.1"/>
    </filter>
    <clipPath id="laptop-clip">
      <rect x="84" y="100" width="288" height="206" rx="8"/>
    </clipPath>
  </defs>

  <ellipse cx="260" cy="392" rx="175" ry="22" fill="#94a3b8" opacity="0.14"/>

  <g filter="url(#device-shadow)">
    <path d="M88 318h280l-14 22H102l-14-22z" fill="#cbd5e1"/>
    <path d="M96 318h264l-8 14H104l-8-14z" fill="#e2e8f0"/>
    <rect x="72" y="88" width="312" height="230" rx="14" fill="#1e293b"/>
    <rect x="84" y="100" width="288" height="206" rx="8" fill="url(#screen-bg)"/>
    <circle cx="100" cy="114" r="3.5" fill="#f87171"/>
    <circle cx="112" cy="114" r="3.5" fill="#fbbf24"/>
    <circle cx="124" cy="114" r="3.5" fill="#34d399"/>
    <rect x="140" y="108" width="168" height="12" rx="6" fill="#f1f5f9" stroke="#e2e8f0" stroke-width="0.75"/>
    <rect x="148" y="111" width="56" height="6" rx="3" fill="#cbd5e1"/>
    <g clip-path="url(#laptop-clip)">
      <rect x="84" y="124" width="288" height="182" fill="url(#hero-band)"/>
      <rect x="96" y="128" width="28" height="7" rx="3.5" fill="#059669"/>
      <rect x="200" y="130" width="24" height="4" rx="2" fill="#e2e8f0"/>
      <rect x="232" y="130" width="24" height="4" rx="2" fill="#e2e8f0"/>
      <rect x="264" y="130" width="24" height="4" rx="2" fill="#e2e8f0"/>
      <rect x="316" y="127" width="44" height="9" rx="4.5" fill="url(#accent-grad)"/>
      <rect x="96" y="152" width="140" height="10" rx="4" fill="#0f172a" opacity="0.9"/>
      <rect x="96" y="168" width="118" height="10" rx="4" fill="#0f172a" opacity="0.75"/>
      <rect x="96" y="186" width="100" height="5" rx="2.5" fill="#94a3b8"/>
      <rect x="96" y="196" width="88" height="5" rx="2.5" fill="#cbd5e1"/>
      <rect x="96" y="212" width="72" height="14" rx="7" fill="url(#accent-grad)"/>
      <rect x="228" y="148" width="132" height="88" rx="8" fill="#e2e8f0"/>
      <rect x="240" y="160" width="108" height="52" rx="6" fill="#f8fafc"/>
      <circle cx="294" cy="186" r="14" fill="#d1fae5"/>
      <path d="M286 186h16M294 178v16" stroke="#059669" stroke-width="2" stroke-linecap="round" opacity="0.5"/>
      <rect x="96" y="248" width="56" height="48" rx="6" fill="#ffffff" stroke="#e2e8f0" stroke-width="1"/>
      <circle cx="108" cy="262" r="6" fill="#d1fae5"/>
      <rect x="118" y="258" width="28" height="4" rx="2" fill="#cbd5e1"/>
      <rect x="118" y="266" width="24" height="3" rx="1.5" fill="#e2e8f0"/>
      <rect x="162" y="248" width="56" height="48" rx="6" fill="#ffffff" stroke="#e2e8f0" stroke-width="1"/>
      <circle cx="174" cy="262" r="6" fill="#d1fae5"/>
      <rect x="184" y="258" width="28" height="4" rx="2" fill="#cbd5e1"/>
      <rect x="228" y="248" width="56" height="48" rx="6" fill="#ffffff" stroke="#e2e8f0" stroke-width="1"/>
      <circle cx="240" cy="262" r="6" fill="#d1fae5"/>
      <rect x="250" y="258" width="28" height="4" rx="2" fill="#cbd5e1"/>
    </g>
  </g>

  <g filter="url(#device-shadow)" transform="translate(322 56) rotate(5)">
    <rect width="124" height="252" rx="20" fill="#1e293b"/>
    <rect x="7" y="10" width="110" height="232" rx="14" fill="url(#screen-bg)"/>
    <rect x="42" y="18" width="40" height="4" rx="2" fill="#1e293b" opacity="0.12"/>
    <rect x="7" y="28" width="110" height="52" fill="url(#hero-band)"/>
    <rect x="16" y="34" width="24" height="6" rx="3" fill="#059669"/>
    <rect x="16" y="48" width="72" height="6" rx="3" fill="#0f172a" opacity="0.85"/>
    <rect x="16" y="58" width="58" height="5" rx="2.5" fill="#0f172a" opacity="0.6"/>
    <rect x="16" y="68" width="48" height="5" rx="2.5" fill="#94a3b8"/>
    <rect x="16" y="78" width="52" height="10" rx="5" fill="url(#accent-grad)"/>
    <rect x="16" y="94" width="92" height="56" rx="6" fill="#e2e8f0"/>
    <rect x="24" y="102" width="76" height="36" rx="4" fill="#f8fafc"/>
    <rect x="16" y="158" width="92" height="5" rx="2.5" fill="#cbd5e1"/>
    <rect x="16" y="168" width="80" height="4" rx="2" fill="#e2e8f0"/>
    <rect x="16" y="192" width="92" height="10" rx="5" fill="url(#accent-grad)"/>
    <rect x="16" y="210" width="40" height="4" rx="2" fill="#e2e8f0"/>
  </g>

  <g filter="url(#float-shadow)">
    <rect x="12" y="52" width="86" height="44" rx="12" fill="#ffffff" stroke="#a7f3d0" stroke-width="1.25"/>
    <text x="24" y="70" font-family="system-ui,sans-serif" font-size="8" fill="#047857">Clientes</text>
    <text x="24" y="88" font-family="system-ui,sans-serif" font-size="14" font-weight="700" fill="#059669">+30</text>

    <rect x="4" y="118" width="98" height="44" rx="12" fill="#ffffff" stroke="#e2e8f0" stroke-width="1.25"/>
    <text x="16" y="136" font-family="system-ui,sans-serif" font-size="8" fill="#64748b">Visualiza&#231;&#245;es</text>
    <text x="16" y="154" font-family="system-ui,sans-serif" font-size="15" font-weight="700" fill="#0f172a">12,4k</text>
    <text x="72" y="154" font-family="system-ui,sans-serif" font-size="10" font-weight="600" fill="#059669">&#8593; 94%</text>

    <rect x="388" y="108" width="100" height="44" rx="12" fill="#ffffff" stroke="#e2e8f0" stroke-width="1.25"/>
    <text x="400" y="126" font-family="system-ui,sans-serif" font-size="8" fill="#64748b">Vendas</text>
    <text x="400" y="144" font-family="system-ui,sans-serif" font-size="15" font-weight="700" fill="#0f172a">2.847</text>
    <text x="456" y="144" font-family="system-ui,sans-serif" font-size="10" font-weight="600" fill="#059669">&#8593; 68%</text>

    <rect x="400" y="228" width="96" height="44" rx="12" fill="#ecfdf5" stroke="#a7f3d0" stroke-width="1.25"/>
    <text x="412" y="246" font-family="system-ui,sans-serif" font-size="8" fill="#047857">Leads</text>
    <text x="412" y="264" font-family="system-ui,sans-serif" font-size="15" font-weight="700" fill="#059669">+318</text>
    <text x="468" y="264" font-family="system-ui,sans-serif" font-size="10" font-weight="600" fill="#059669">&#8593; 41%</text>

    <rect x="8" y="268" width="72" height="56" rx="10" fill="#ffffff" stroke="#e2e8f0" stroke-width="1.25"/>
    <path d="M18 308 L30 298 L42 292 L54 280 L66 268" stroke="#059669" stroke-width="2" stroke-linecap="round" fill="none"/>
    <path d="M18 312 L66 268 L66 312 Z" fill="url(#chart-fill)"/>

    <rect x="448" y="52" width="64" height="52" rx="10" fill="#ffffff" stroke="#e2e8f0" stroke-width="1.25"/>
    <rect x="458" y="86" width="8" height="10" rx="2" fill="#cbd5e1"/>
    <rect x="470" y="80" width="8" height="16" rx="2" fill="#94a3b8"/>
    <rect x="482" y="72" width="8" height="24" rx="2" fill="#34d399"/>
    <rect x="494" y="62" width="8" height="34" rx="2" fill="#059669"/>
  </g>
</svg>
