<svg xmlns="http://www.w3.org/2000/svg" viewBox="0 0 480 400" fill="none" role="img" aria-hidden="true">
  <defs>
    <linearGradient id="g1" x1="0%" y1="0%" x2="100%" y2="100%">
      <stop offset="0%" stop-color="#059669"/>
      <stop offset="100%" stop-color="#047857"/>
    </linearGradient>
    <linearGradient id="g2" x1="0%" y1="0%" x2="0%" y2="100%">
      <stop offset="0%" stop-color="#ffffff"/>
      <stop offset="100%" stop-color="#f1f5f9"/>
    </linearGradient>
    <filter id="shadow" x="-20%" y="-20%" width="140%" height="140%">
      <feDropShadow dx="0" dy="12" stdDeviation="16" flood-color="#0f172a" flood-opacity="0.1"/>
    </filter>
  </defs>
  <ellipse cx="240" cy="360" rx="160" ry="20" fill="#94a3b8" opacity="0.15"/>
  <g filter="url(#shadow)">
    <rect x="120" y="80" width="200" height="260" rx="16" fill="url(#g2)" stroke="#e2e8f0" stroke-width="2"/>
    <rect x="140" y="110" width="120" height="12" rx="6" fill="#cbd5e1"/>
    <rect x="140" y="140" width="160" height="8" rx="4" fill="#e2e8f0"/>
    <rect x="140" y="158" width="140" height="8" rx="4" fill="#e2e8f0"/>
    <rect x="140" y="176" width="150" height="8" rx="4" fill="#e2e8f0"/>
    <rect x="140" y="210" width="80" height="36" rx="10" fill="url(#g1)"/>
    <text x="180" y="234" font-family="system-ui,sans-serif" font-size="14" font-weight="600" fill="white" text-anchor="middle">R$</text>
    <circle cx="280" cy="130" r="28" fill="#059669" opacity="0.15"/>
    <path d="M268 130l8 8 16-16" stroke="#059669" stroke-width="3" stroke-linecap="round" stroke-linejoin="round" fill="none"/>
  </g>
  <g transform="translate(300, 60) rotate(8)">
    <rect x="0" y="0" width="140" height="180" rx="12" fill="white" stroke="#e2e8f0" stroke-width="2" opacity="0.95"/>
    <rect x="20" y="24" width="60" height="8" rx="4" fill="#cbd5e1"/>
    <rect x="20" y="44" width="100" height="6" rx="3" fill="#e2e8f0"/>
    <rect x="20" y="58" width="90" height="6" rx="3" fill="#e2e8f0"/>
    <rect x="20" y="100" width="50" height="24" rx="8" fill="#059669" opacity="0.25"/>
  </g>
  <circle cx="90" cy="200" r="40" fill="#f1f5f9" stroke="#cbd5e1" stroke-width="2"/>
  <path d="M75 200h30M90 185v30" stroke="#64748b" stroke-width="3" stroke-linecap="round"/>
</svg>
